<svg aria-hidden="true" style="position:absolute;width:0;height:0;overflow:hidden" xmlns="http://www.w3.org/2000/svg">
  <defs>
    <symbol id="arrow-circle-broken-right" viewBox="0 0 32 32">
      <path stroke-linejoin="round" stroke-linecap="round" stroke-width="2.6" d="M4.451 9.333a13.328 13.328 0 0 1 11.55-6.667c7.364 0 13.333 5.97 13.333 13.333s-5.97 13.333-13.333 13.333a13.329 13.329 0 0 1-11.55-6.667"/>
      <path stroke-linejoin="round" stroke-linecap="round" stroke-width="2.6" d="M16 21.333 21.333 16 16 10.667M2.667 16h18.667"/>
    </symbol>
    <symbol id="calendar-check-02" viewBox="0 0 32 32">
      <path stroke-linejoin="round" stroke-linecap="round" stroke-width="2.667" d="M28 13.333H4m24 3.334v-4.933c0-2.24 0-3.36-.436-4.216a3.991 3.991 0 0 0-1.748-1.748c-.856-.436-1.976-.436-4.216-.436H10.4c-2.24 0-3.36 0-4.216.436a3.991 3.991 0 0 0-1.748 1.748C4 8.374 4 9.494 4 11.734v11.2c0 2.24 0 3.36.436 4.216a3.991 3.991 0 0 0 1.748 1.748c.856.436 1.976.436 4.216.436H16m5.333-26.667V8M10.667 2.667V8m8.666 17.333L22 28l6-6"/>
    </symbol>
    <symbol id="chevron-down" viewBox="0 0 32 32">
      <path stroke-linejoin="round" stroke-linecap="round" stroke-width="3.556" d="m8 12 8 8 8-8"/>
    </symbol>
    <symbol id="chevron-left" viewBox="0 0 32 32">
      <path stroke-linejoin="round" stroke-linecap="round" stroke-width="2.667" d="m12 24 8-8-8-8"/>
    </symbol>
    <symbol id="done" viewBox="0 0 32 32">
      <path d="m14.133 18.4-2.9-2.9c-.244-.244-.55-.361-.916-.349s-.673.138-.917.383-.367.556-.367.933c0 .378.122.689.367.933l3.8 3.8c.244.244.556.367.933.367s.689-.122.933-.367l7.567-7.567c.244-.244.361-.55.351-.917s-.14-.672-.384-.916-.556-.367-.933-.367c-.378 0-.689.122-.933.367l-6.6 6.6zM16 29.333c-1.844 0-3.578-.35-5.2-1.051s-3.033-1.649-4.233-2.849-2.15-2.611-2.849-4.233c-.7-1.622-1.051-3.356-1.051-5.2s.35-3.578 1.051-5.2c.7-1.622 1.649-3.033 2.849-4.233s2.611-2.15 4.233-2.851c1.622-.7 3.356-1.049 5.2-1.049s3.578.35 5.2 1.049c1.622.7 3.033 1.651 4.233 2.851s2.15 2.611 2.849 4.233c.7 1.622 1.051 3.356 1.051 5.2s-.35 3.578-1.051 5.2c-.7 1.622-1.649 3.033-2.849 4.233s-2.611 2.15-4.233 2.849c-1.622.7-3.356 1.051-5.2 1.051zm0-2.666c2.956 0 5.472-1.039 7.551-3.116s3.116-4.595 3.116-7.551c0-2.956-1.039-5.472-3.116-7.551S18.956 5.333 16 5.333c-2.956 0-5.472 1.039-7.549 3.116S5.334 13.044 5.334 16c0 2.956 1.039 5.472 3.117 7.551s4.594 3.116 7.549 3.116z"/>
    </symbol>
    <symbol id="ic_baseline-error-outline" viewBox="0 0 32 32">
      <path d="M14.667 20h2.667v2.667h-2.667V20zm0-10.667h2.667v8h-2.667v-8zm1.32-6.666C8.627 2.667 2.667 8.64 2.667 16s5.96 13.333 13.32 13.333c7.373 0 13.347-5.973 13.347-13.333S23.361 2.667 15.987 2.667zm.013 24c-5.893 0-10.667-4.773-10.667-10.667S10.106 5.333 16 5.333c5.893 0 10.667 4.773 10.667 10.667S21.894 26.667 16 26.667z"/>
    </symbol>
    <symbol id="log-in-01" viewBox="0 0 32 32">
      <path stroke-linejoin="round" stroke-linecap="round" stroke-width="2.526" d="M19.789 4.632h1.516c2.122 0 3.183 0 3.994.413a3.786 3.786 0 0 1 1.656 1.656c.413.811.413 1.872.413 3.994v10.611c0 2.122 0 3.183-.413 3.994a3.786 3.786 0 0 1-1.656 1.656c-.811.413-1.872.413-3.994.413h-1.516M13.474 9.684 19.79 16m-.001 0-6.316 6.316M19.789 16H4.631"/>
    </symbol>
    <symbol id="log-out-01" viewBox="0 0 32 32">
      <path stroke-linejoin="round" stroke-linecap="round" stroke-width="3.2" d="M21.333 22.667 28 16m0 0-6.667-6.667M28 16H12m0-12h-1.6c-2.24 0-3.36 0-4.216.436a3.991 3.991 0 0 0-1.748 1.748C4 7.04 4 8.16 4 10.4v11.2c0 2.24 0 3.36.436 4.216a3.996 3.996 0 0 0 1.748 1.748C7.04 28 8.16 28 10.4 28H12"/>
    </symbol>
    <symbol id="moon" viewBox="0 0 32 32">
      <path d="M27.656 17.393c-.904.24-1.834.361-2.769.361-2.847 0-5.52-1.107-7.528-3.115a10.702 10.702 0 0 1-2.751-10.298 1.33 1.33 0 0 0-.943-1.63 1.345 1.345 0 0 0-.69 0A13.346 13.346 0 0 0 6.99 6.154c-5.197 5.197-5.197 13.657 0 18.857a13.26 13.26 0 0 0 9.429 3.907 13.245 13.245 0 0 0 9.427-3.905 13.343 13.343 0 0 0 3.444-5.988 1.33 1.33 0 0 0-.347-1.285 1.34 1.34 0 0 0-1.285-.346zm-3.696 5.735a10.594 10.594 0 0 1-7.542 3.124 10.585 10.585 0 0 1-7.544-3.125c-4.157-4.159-4.157-10.927 0-15.085a10.562 10.562 0 0 1 2.747-1.977 13.365 13.365 0 0 0 3.854 10.464 13.29 13.29 0 0 0 10.464 3.854 10.704 10.704 0 0 1-1.979 2.745z"/>
    </symbol>
    <symbol id="pencil-01" viewBox="0 0 32 32">
      <path stroke-linejoin="round" stroke-linecap="round" stroke-width="2.6" d="m3.333 28.667 7.399-2.846c.473-.182.71-.273.931-.392.197-.106.384-.227.56-.364.198-.154.378-.333.736-.692l15.04-15.04A3.77 3.77 0 1 0 22.666 4L7.626 19.04c-.359.359-.538.538-.692.736a3.902 3.902 0 0 0-.364.561c-.119.221-.21.458-.392.931l-2.846 7.399zm0 0 2.744-7.135c.196-.511.295-.766.463-.883a.665.665 0 0 1 .505-.107c.201.038.395.232.782.619l3.012 3.012c.387.387.58.58.619.782a.665.665 0 0 1-.107.505c-.117.168-.372.267-.883.463l-7.135 2.744z"/>
    </symbol>
    <symbol id="plus" viewBox="0 0 32 32">
      <path stroke-linejoin="round" stroke-linecap="round" stroke-width="3.556" d="M16 6.667v18.667M6.667 16h18.667"/>
    </symbol>
    <symbol id="plus-circle" viewBox="0 0 32 32">
      <path stroke-linejoin="round" stroke-linecap="round" stroke-width="2.667" d="M16 10.667v10.667M10.667 16h10.667m7.999 0c0 7.364-5.97 13.333-13.333 13.333S2.667 23.363 2.667 16C2.667 8.636 8.637 2.667 16 2.667S29.333 8.637 29.333 16z"/>
    </symbol>
    <symbol id="sun" viewBox="0 0 32 32">
      <path d="M9.324 16c0 3.681 2.995 6.676 6.676 6.676s6.676-2.995 6.676-6.676S19.681 9.324 16 9.324 9.324 12.319 9.324 16zM16 11.991c2.211 0 4.009 1.799 4.009 4.009S18.21 20.009 16 20.009c-2.211 0-4.009-1.799-4.009-4.009S13.79 11.991 16 11.991zm-1.336 13.342h2.667v4h-2.667v-4zm0-22.666h2.667v4h-2.667v-4zm-12 12h4v2.667h-4v-2.667zm22.667 0h4v2.667h-4v-2.667zM5.625 24.484l2.827-2.829 1.887 1.885-2.827 2.829-1.887-1.885zM21.653 8.459l2.829-2.829 1.885 1.885-2.829 2.829-1.885-1.885zM8.456 10.345 5.627 7.516l1.887-1.885 2.827 2.829-1.884 1.885zm17.912 14.14-1.885 1.885-2.829-2.829 1.885-1.885 2.829 2.829z"/>
    </symbol>
    <symbol id="trash-04" viewBox="0 0 32 32">
      <path stroke-linejoin="round" stroke-linecap="round" stroke-width="2.6" d="M12 4h8M4 8h24M6.667 8l.801 12.018c.149 2.231.223 3.347.588 4.243a6 6 0 0 0 3.672 3.435c.919.304 2.037.304 4.273.304 2.236 0 3.354 0 4.273-.304a5.999 5.999 0 0 0 3.671-3.435c.365-.896.439-2.012.588-4.243L25.334 8"/>
    </symbol>
    <symbol id="user-check-01" viewBox="0 0 32 32">
      <path stroke-linejoin="round" stroke-linecap="round" stroke-width="2.667" d="M21.333 24 24 26.667l5.333-5.333M16 20.667h-6c-1.861 0-2.791 0-3.548.23a5.331 5.331 0 0 0-3.555 3.556c-.23.757-.23 1.687-.23 3.548M13.333 16a6 6 0 1 0 0-12 6 6 0 0 0 0 12z"/>
    </symbol>
    <symbol id="down-arrow-1-2" viewBox="0 0 33 32">
      <path d="m7.966 17.067-1.203-.818 22.877-.001v-.64l-22.733.001 1.133-.651-.319-.555-2.608 1.498 2.493 1.695.36-.529z"/>
    </symbol>
    <symbol id="menu-01" viewBox="0 0 32 32">
      <path stroke-linejoin="round" stroke-linecap="round" stroke-width="2.353" d="M4 16h24M4 8h24M4 24h24"/>
    </symbol>
    <symbol id="ph_user" viewBox="0 0 32 32">
      <path d="M28.865 26.5c-1.904-3.291-4.838-5.651-8.261-6.77a9.005 9.005 0 0 0 4.074-10.121 9.002 9.002 0 0 0-14.133-4.771 9.002 9.002 0 0 0-2.894 10.519 9.004 9.004 0 0 0 3.745 4.373c-3.424 1.118-6.358 3.478-8.261 6.77a.999.999 0 0 0 .055 1.127 1.01 1.01 0 0 0 .673.389 1 1 0 0 0 1.004-.515c2.355-4.07 6.517-6.5 11.134-6.5s8.779 2.43 11.134 6.5a.995.995 0 0 0 .608.485 1.002 1.002 0 0 0 1.241-.717.997.997 0 0 0-.117-.769zM9 12a7.002 7.002 0 0 1 8.366-6.865A6.999 6.999 0 1 1 9.001 12z"/>
    </symbol>
    <symbol id="star" viewBox="0 0 32 32">
      <path stroke-width="1.6" d="m16 1.714 4.03 7.638c.212.402.599.683 1.047.761l8.509 1.472-6.019 6.193a1.466 1.466 0 0 0-.4 1.231l1.229 8.548-7.75-3.811a1.464 1.464 0 0 0-1.294 0l-7.75 3.811 1.229-8.548a1.466 1.466 0 0 0-.4-1.231l-6.019-6.193 8.509-1.472a1.468 1.468 0 0 0 1.047-.761l4.03-7.638zM7.376 27.669zm8.742-26.178z"/>
    </symbol>
    <symbol id="trash-2" viewBox="0 0 32 32">
      <path stroke-linejoin="round" stroke-linecap="round" stroke-width="3" d="M4 8h24M25.333 8v18.667a2.67 2.67 0 0 1-2.667 2.667H9.333a2.668 2.668 0 0 1-2.667-2.667V8m4 0V5.333a2.668 2.668 0 0 1 2.667-2.667h5.333a2.668 2.668 0 0 1 2.667 2.667V8M13.334 14.667v8M18.666 14.667v8"/>
    <symbol id="icon-user" viewBox="0 0 33 32">
      <path fill="#3e85f3" style="fill: var(--color1, #3e85f3)" opacity="0.18"
        d="M32.244 29.333c-2.343-4.051-5.954-6.955-10.168-8.332 2.084-1.241 3.704-3.132 4.61-5.382s1.048-4.736 0.404-7.074c-0.643-2.339-2.037-4.402-3.966-5.872s-4.288-2.267-6.714-2.267-4.784 0.796-6.714 2.267c-1.929 1.47-3.323 3.533-3.966 5.872s-0.501 4.824 0.404 7.074c0.906 2.25 2.525 4.141 4.61 5.382-4.214 1.375-7.825 4.28-10.168 8.332-0.086 0.14-0.143 0.296-0.168 0.459s-0.017 0.328 0.024 0.488 0.112 0.309 0.212 0.44c0.099 0.131 0.224 0.241 0.366 0.323s0.3 0.135 0.463 0.155c0.163 0.020 0.329 0.008 0.487-0.037s0.306-0.12 0.434-0.223 0.235-0.23 0.313-0.374c2.898-5.009 8.021-8 13.703-8s10.805 2.991 13.703 8c0.078 0.144 0.185 0.272 0.313 0.374s0.276 0.178 0.434 0.223c0.158 0.045 0.324 0.057 0.487 0.037s0.32-0.073 0.463-0.155c0.142-0.082 0.267-0.192 0.366-0.323s0.171-0.281 0.212-0.44c0.040-0.159 0.048-0.325 0.024-0.488s-0.082-0.318-0.168-0.459zM7.795 11.487c0-1.704 0.505-3.37 1.452-4.786s2.292-2.521 3.866-3.173c1.574-0.652 3.307-0.823 4.978-0.49s3.206 1.153 4.411 2.358c1.205 1.205 2.025 2.74 2.358 4.411s0.162 3.404-0.49 4.978c-0.652 1.574-1.756 2.92-3.173 3.866s-3.082 1.452-4.786 1.452c-2.284-0.002-4.474-0.911-6.089-2.526s-2.524-3.805-2.526-6.089z">
      </path>
    </symbol>
  </defs>
</svg>
